<svg xmlns="http://www.w3.org/2000/svg" viewBox="0 0 64 64">
  <defs>
    <linearGradient id="g" x1="0%" y1="0%" x2="0%" y2="100%">
      <stop offset="0%" stop-color="#7fa586"/>
      <stop offset="100%" stop-color="#4d6a53"/>
    </linearGradient>
  </defs>
  <circle cx="32" cy="32" r="30" fill="url(#g)"/>
  <path d="M40 22c-1.6-1.5-4.4-2.5-7.5-2.5c-5.4 0-9 2.7-9 6.5c0 3.4 2.4 5.4 7 6.5l3 0.7c2.7 0.6 4 1.5 4 2.9c0 1.7-1.8 2.8-4.6 2.8c-3 0-5.6-1.1-7.4-3l-3 4c2.4 2.4 6 3.7 10.3 3.7c5.7 0 9.4-2.8 9.4-7c0-3.6-2.4-5.6-7.4-6.7l-2.9-0.7c-2.5-0.6-3.7-1.4-3.7-2.7c0-1.6 1.6-2.6 4.2-2.6c2.4 0 4.6 0.8 6.4 2.4z" fill="#ffffff"/>
</svg>
